# xmcd CD database file
#
# Track frame offsets:
#	182
#	16187
#	26755
#	41735
#	61327
#	72342
#	86280
#	96325
#	101197
#	118027
#	137252
#	142445
#	158357
#	163342
#	179355
#	192030
#
# Disc length: 2654 seconds
#
# Revision: 0
# Processed by: cddbd v1.5.1PL2 Copyright (c) Steve Scherf et al.
# Submitted via: CDex 1.51
#
DISCID=db0a5c10
DTITLE=Charlie Parker - Live Birdland 1950
DYEAR=1989
DGENRE=Jazz
TTITLE0=Hot House
TTITLE1=Out of Nowhere
TTITLE2=Visa/52nd Street Theme
TTITLE3=Anthropology/Wee
TTITLE4=What's New
TTITLE5=Little Willie Leaps
TTITLE6=Yesterdays/52nd Street Theme
TTITLE7=52nd Street Theme
TTITLE8=Dizzy Atmosphere
TTITLE9=Wahoo (Perdido)
TTITLE10=I Can't Get Started
TTITLE11=Wee
TTITLE12=52nd Street Theme
TTITLE13=Slow Boat to China
TTITLE14=A Night in Tunisia
TTITLE15=52nd Street Theme
EXTD=YEAR: 1989
EXTT0=
EXTT1=
EXTT2=
EXTT3=
EXTT4=
EXTT5=
EXTT6=
EXTT7=
EXTT8=
EXTT9=
EXTT10=
EXTT11=
EXTT12=
EXTT13=
EXTT14=
EXTT15=
PLAYORDER=
